<mxfile host="app.diagrams.net" agent="Mozilla/5.0 (X11; Linux x86_64) AppleWebKit/537.36 (KHTML, like Gecko) Chrome/137.0.0.0 Safari/537.36" version="24.7.17">
  <diagram name="Page-1" id="EBVb402Sg5HCd9EDDGjv">
    <mxGraphModel dx="1217" dy="1839" grid="1" gridSize="10" guides="1" tooltips="1" connect="1" arrows="1" fold="1" page="1" pageScale="1" pageWidth="850" pageHeight="1100" math="0" shadow="0">
      <root>
        <mxCell id="0" />
        <mxCell id="1" parent="0" />
        <mxCell id="P2EpWABpp41pomY2Oe1M-4" style="rounded=0;orthogonalLoop=1;jettySize=auto;html=1;edgeStyle=orthogonalEdgeStyle;curved=1;" edge="1" parent="1" source="P2EpWABpp41pomY2Oe1M-1" target="P2EpWABpp41pomY2Oe1M-2">
          <mxGeometry relative="1" as="geometry">
            <mxPoint x="250" y="21.42857142857133" as="targetPoint" />
            <Array as="points">
              <mxPoint x="700" y="-20" />
            </Array>
          </mxGeometry>
        </mxCell>
        <mxCell id="P2EpWABpp41pomY2Oe1M-36" value="add zettel" style="edgeLabel;html=1;align=center;verticalAlign=middle;resizable=0;points=[];" vertex="1" connectable="0" parent="P2EpWABpp41pomY2Oe1M-4">
          <mxGeometry x="0.0841" y="-2" relative="1" as="geometry">
            <mxPoint x="8" y="-2" as="offset" />
          </mxGeometry>
        </mxCell>
        <mxCell id="P2EpWABpp41pomY2Oe1M-8" style="rounded=0;orthogonalLoop=1;jettySize=auto;html=1;edgeStyle=orthogonalEdgeStyle;curved=1;" edge="1" parent="1" source="P2EpWABpp41pomY2Oe1M-1" target="P2EpWABpp41pomY2Oe1M-21">
          <mxGeometry relative="1" as="geometry">
            <mxPoint x="211.16515945854462" y="-118.23303189170883" as="targetPoint" />
          </mxGeometry>
        </mxCell>
        <mxCell id="P2EpWABpp41pomY2Oe1M-38" value="develop zettel" style="edgeLabel;html=1;align=center;verticalAlign=middle;resizable=0;points=[];" vertex="1" connectable="0" parent="P2EpWABpp41pomY2Oe1M-8">
          <mxGeometry x="0.053" y="-2" relative="1" as="geometry">
            <mxPoint x="-36" y="-12" as="offset" />
          </mxGeometry>
        </mxCell>
        <mxCell id="P2EpWABpp41pomY2Oe1M-1" value="Main" style="rounded=0;whiteSpace=wrap;html=1;fillColor=#dae8fc;strokeColor=#6c8ebf;" vertex="1" parent="1">
          <mxGeometry x="60" y="-70" width="120" height="60" as="geometry" />
        </mxCell>
        <mxCell id="P2EpWABpp41pomY2Oe1M-13" style="rounded=0;orthogonalLoop=1;jettySize=auto;html=1;edgeStyle=orthogonalEdgeStyle;curved=1;" edge="1" parent="1" source="P2EpWABpp41pomY2Oe1M-2" target="P2EpWABpp41pomY2Oe1M-9">
          <mxGeometry relative="1" as="geometry">
            <mxPoint x="670" y="150" as="targetPoint" />
          </mxGeometry>
        </mxCell>
        <mxCell id="P2EpWABpp41pomY2Oe1M-42" value="quit" style="edgeLabel;html=1;align=center;verticalAlign=middle;resizable=0;points=[];" vertex="1" connectable="0" parent="P2EpWABpp41pomY2Oe1M-13">
          <mxGeometry x="0.2941" y="33" relative="1" as="geometry">
            <mxPoint as="offset" />
          </mxGeometry>
        </mxCell>
        <mxCell id="P2EpWABpp41pomY2Oe1M-2" value="Neovim B&lt;span style=&quot;background-color: initial;&quot;&gt;uffer&lt;/span&gt;" style="rounded=0;whiteSpace=wrap;html=1;dashed=1;fillColor=#dae8fc;strokeColor=#6c8ebf;" vertex="1" parent="1">
          <mxGeometry x="690" y="-50" width="120" height="60" as="geometry" />
        </mxCell>
        <mxCell id="P2EpWABpp41pomY2Oe1M-9" value="Save Options" style="rounded=0;whiteSpace=wrap;html=1;fillColor=#dae8fc;strokeColor=#6c8ebf;" vertex="1" parent="1">
          <mxGeometry x="410" y="230" width="120" height="60" as="geometry" />
        </mxCell>
        <mxCell id="P2EpWABpp41pomY2Oe1M-18" style="rounded=0;orthogonalLoop=1;jettySize=auto;html=1;edgeStyle=orthogonalEdgeStyle;curved=1;" edge="1" parent="1" source="P2EpWABpp41pomY2Oe1M-9" target="P2EpWABpp41pomY2Oe1M-1">
          <mxGeometry relative="1" as="geometry">
            <mxPoint x="220" y="260" as="sourcePoint" />
          </mxGeometry>
        </mxCell>
        <mxCell id="P2EpWABpp41pomY2Oe1M-40" value="save" style="edgeLabel;html=1;align=center;verticalAlign=middle;resizable=0;points=[];" vertex="1" connectable="0" parent="P2EpWABpp41pomY2Oe1M-18">
          <mxGeometry x="-0.2522" y="-28" relative="1" as="geometry">
            <mxPoint as="offset" />
          </mxGeometry>
        </mxCell>
        <mxCell id="P2EpWABpp41pomY2Oe1M-23" style="rounded=0;orthogonalLoop=1;jettySize=auto;html=1;edgeStyle=orthogonalEdgeStyle;curved=1;" edge="1" parent="1" source="P2EpWABpp41pomY2Oe1M-21" target="P2EpWABpp41pomY2Oe1M-2">
          <mxGeometry relative="1" as="geometry">
            <mxPoint x="610" y="-170" as="targetPoint" />
          </mxGeometry>
        </mxCell>
        <mxCell id="P2EpWABpp41pomY2Oe1M-41" value="add zettel" style="edgeLabel;html=1;align=center;verticalAlign=middle;resizable=0;points=[];" vertex="1" connectable="0" parent="P2EpWABpp41pomY2Oe1M-23">
          <mxGeometry x="-0.2501" y="-37" relative="1" as="geometry">
            <mxPoint as="offset" />
          </mxGeometry>
        </mxCell>
        <mxCell id="P2EpWABpp41pomY2Oe1M-21" value="Select Zettel" style="rounded=0;whiteSpace=wrap;html=1;fillColor=#dae8fc;strokeColor=#6c8ebf;" vertex="1" parent="1">
          <mxGeometry x="210" y="-260" width="120" height="60" as="geometry" />
        </mxCell>
        <mxCell id="P2EpWABpp41pomY2Oe1M-28" style="rounded=0;orthogonalLoop=1;jettySize=auto;html=1;edgeStyle=orthogonalEdgeStyle;curved=1;" edge="1" parent="1" source="P2EpWABpp41pomY2Oe1M-21" target="P2EpWABpp41pomY2Oe1M-1">
          <mxGeometry relative="1" as="geometry">
            <mxPoint x="218.05060869283943" y="-269.9789949732492" as="sourcePoint" />
          </mxGeometry>
        </mxCell>
        <mxCell id="P2EpWABpp41pomY2Oe1M-39" value="back" style="edgeLabel;html=1;align=center;verticalAlign=middle;resizable=0;points=[];" vertex="1" connectable="0" parent="P2EpWABpp41pomY2Oe1M-28">
          <mxGeometry x="0.0672" y="16" relative="1" as="geometry">
            <mxPoint as="offset" />
          </mxGeometry>
        </mxCell>
      </root>
    </mxGraphModel>
  </diagram>
</mxfile>
